<?xml version="1.0" encoding="UTF-8" standalone="no"?>
<svg
   width="51.680305"
   height="53.38541"
   viewBox="0 0 51.680305 53.38541"
   version="1.1"
   xml:space="preserve"
   style="clip-rule:evenodd;fill-rule:evenodd;stroke-linejoin:round;stroke-miterlimit:2"
   id="svg169"
   sodipodi:docname="grune — копия (2).svg"
   inkscape:version="1.1.2 (b8e25be833, 2022-02-05)"
   xmlns:inkscape="http://www.inkscape.org/namespaces/inkscape"
   xmlns:sodipodi="http://sodipodi.sourceforge.net/DTD/sodipodi-0.dtd"
   xmlns="http://www.w3.org/2000/svg"
   xmlns:svg="http://www.w3.org/2000/svg">
    <g
   id="g134"
   transform="matrix(0.30755352,0,0,0.30755352,-48.219535,-43.66587)">
                <g
   transform="translate(162.259,295.717)"
   id="g4">
                    <path
   d="m 0,2.64 -1.793,2.231 v 4.85 h -3.63 V -7.081 h 3.63 v 7.249 h 0.064 l 1.643,-2.16 3.824,-5.089 H 8.06 L 2.68,-0.288 8.362,9.721 H 4.127 Z"
   style="fill:#3c3c3b;fill-rule:nonzero"
   id="path2" />
                </g>
                <g
   transform="translate(177.574,292.116)"
   id="g8">
                    <path
   d="m 0,9.842 c 2.506,0 4.321,-1.92 4.321,-4.921 0,-3.024 -1.815,-4.944 -4.321,-4.944 -2.507,0 -4.321,1.92 -4.321,4.944 0,3.001 1.814,4.921 4.321,4.921 M 0,-3.816 c 4.623,0 7.973,3.601 7.973,8.737 0,5.137 -3.35,8.737 -7.973,8.737 -4.624,0 -7.974,-3.6 -7.974,-8.737 0,-5.136 3.35,-8.737 7.974,-8.737"
   style="fill:#3c3c3b;fill-rule:nonzero"
   id="path6" />
                </g>
                <g
   transform="translate(190.468,298.67)"
   id="g12">
                    <path
   d="m 0,-3.265 h -0.064 c 0,0.024 0.043,2.088 0.043,4.272 v 5.761 h -3.63 v -16.801 h 3.672 l 6.44,9.84 h 0.064 c 0,-0.024 -0.021,-2.184 -0.021,-4.008 v -5.832 h 3.63 V 6.768 H 6.439 Z"
   style="fill:#3c3c3b;fill-rule:nonzero"
   id="path10" />
                </g>
                <g
   transform="translate(206.106,301.695)"
   id="g16">
                    <path
   d="m 0,-9.314 v 3.216 h 5.596 v 3.744 H 0 V 3.744 H -3.63 V -13.058 H 7.195 v 3.744 z"
   style="fill:#3c3c3b;fill-rule:nonzero"
   id="path14" />
                </g>
                <g
   transform="translate(214.745,305.439)"
   id="g20">
                    <path
   d="m 0,-16.802 h 11.019 v 3.744 H 3.63 v 2.88 h 5.444 v 3.361 H 3.63 v 3.073 h 7.497 V 0 H 0 Z"
   style="fill:#3c3c3b;fill-rule:nonzero"
   id="path18" />
                </g>
                <g
   transform="translate(233.689,292.38)"
   id="g24">
                    <path
   d="M 0,9.314 C 2.247,9.314 4.516,8.041 4.516,4.729 4.516,1.44 2.247,0 0,0 H -2.614 V 9.314 Z M 0.194,-3.744 c 4.516,0 7.973,3.409 7.973,8.473 0,5.089 -3.479,8.329 -7.951,8.329 h -6.46 V -3.744 Z"
   style="fill:#3c3c3b;fill-rule:nonzero"
   id="path22" />
                </g>
                <g
   transform="translate(243.127,305.439)"
   id="g28">
                    <path
   d="m 0,-16.802 h 11.02 v 3.744 H 3.63 v 2.88 h 5.445 v 3.361 H 3.63 v 3.073 h 7.497 V 0 H 0 Z"
   style="fill:#3c3c3b;fill-rule:nonzero"
   id="path26" />
                </g>
                <g
   transform="translate(261.812,297.398)"
   id="g32">
                    <path
   d="m 0,-0.721 c 1.339,0 2.074,-0.744 2.074,-2.16 0,-1.392 -0.691,-2.233 -2.096,-2.233 h -2.333 v 4.393 z m -0.735,3.216 h -1.62 V 8.04 h -3.63 V -8.761 h 5.747 c 3.803,0 6.028,2.208 6.028,5.688 0,2.304 -1.016,4.008 -2.851,4.776 L 6.396,8.04 h -4.3 z"
   style="fill:#3c3c3b;fill-rule:nonzero"
   id="path30" />
                </g>
                <g
   transform="translate(277.32,298.43)"
   id="g36">
                    <path
   d="m 0,-2.785 c -0.476,-1.392 -0.821,-2.448 -0.843,-2.472 h -0.064 c -0.022,0.024 -0.367,1.056 -0.843,2.448 l -1.08,3.36 H 1.081 Z M -4.018,4.223 -4.926,7.008 H -8.75 L -2.917,-9.793 H 1.21 L 7.065,7.008 H 3.177 L 2.269,4.223 Z"
   style="fill:#3c3c3b;fill-rule:nonzero"
   id="path34" />
                </g>
                <g
   transform="translate(299.118,293.606)"
   id="g40">
                    <path
   d="m 0,6.864 c -1.124,3.264 -3.911,5.305 -7.195,5.305 -4.516,0 -7.844,-3.53 -7.844,-8.785 0,-5.113 3.328,-8.689 7.844,-8.689 3.478,0 6.028,2.136 7.044,4.848 l -3.587,1.08 c -0.779,-1.344 -2.01,-2.136 -3.63,-2.136 -2.463,0 -4.019,2.016 -4.019,4.944 0,2.977 1.663,4.921 3.997,4.921 1.988,0 3.219,-1.152 3.825,-2.545 z"
   style="fill:#3c3c3b;fill-rule:nonzero"
   id="path38" />
                </g>
                <g
   transform="translate(309.182,296.438)"
   id="g44">
                    <path
   d="m 0,1.535 c 0,5.016 -2.03,7.801 -6.007,7.801 -1.771,0 -3.133,-0.576 -4.061,-1.656 l 2.095,-3.097 c 0.54,0.697 1.124,0.937 1.923,0.937 2.075,0 2.42,-1.416 2.42,-4.369 V -7.801 H 0 Z"
   style="fill:#3c3c3b;fill-rule:nonzero"
   id="path42" />
                </g>
                <g
   transform="translate(317.756,298.43)"
   id="g48">
                    <path
   d="m 0,-2.785 c -0.476,-1.392 -0.821,-2.448 -0.843,-2.472 h -0.064 c -0.022,0.024 -0.368,1.056 -0.843,2.448 l -1.08,3.36 H 1.081 Z M -4.019,4.223 -4.926,7.008 H -8.75 L -2.917,-9.793 H 1.21 L 7.065,7.008 H 3.177 L 2.268,4.223 Z"
   style="fill:#3c3c3b;fill-rule:nonzero"
   id="path46" />
                </g>
                <g
   transform="translate(185.68,311.378)"
   id="g52">
                    <path
   d="M 0,1.958 C -0.277,0.913 -0.396,0.451 -0.406,0.44 h -0.03 c -0.01,0.011 -0.128,0.473 -0.416,1.53 L -1.426,4.06 H -3.07 l -1.615,-6.162 h 1.674 l 0.555,2.278 c 0.277,1.111 0.376,1.606 0.386,1.617 h 0.03 c 0.01,-0.011 0.109,-0.495 0.366,-1.452 l 0.495,-1.947 H 0.524 L 1,0.352 c 0.228,0.958 0.307,1.43 0.317,1.441 h 0.03 C 1.356,1.782 1.456,1.298 1.733,0.176 L 2.317,-2.102 H 3.832 L 2.218,4.06 H 0.574 Z"
   style="fill:#3c3c3b;fill-rule:nonzero"
   id="path50" />
                </g>
                <g
   transform="translate(192.471,310.751)"
   id="g56">
                    <path
   d="M 0,3.212 C 0.852,3.212 1.406,2.564 1.406,1.607 1.406,0.649 0.852,0 0,0 c -0.842,0 -1.396,0.649 -1.396,1.607 0,0.957 0.554,1.605 1.396,1.605 m 0,-4.808 c 1.753,0 3.001,1.331 3.001,3.203 0,1.87 -1.248,3.201 -3.001,3.201 -1.743,0 -2.991,-1.331 -2.991,-3.201 0,-1.872 1.248,-3.203 2.991,-3.203"
   style="fill:#3c3c3b;fill-rule:nonzero"
   id="path54" />
                </g>
                <g
   transform="translate(196.054,315.437)"
   id="g60">
                    <path
   d="m 0,-6.161 h 1.564 v 4.544 H 4.001 V 0 H 0 Z"
   style="fill:#3c3c3b;fill-rule:nonzero"
   id="path58" />
                </g>
                <g
   transform="translate(204.43,309.276)"
   id="g64">
                    <path
   d="M 0,6.161 -2.159,2.695 h -0.039 c 0,0.012 0.01,0.66 0.01,1.364 V 6.161 H -3.753 V 0 h 1.624 L 0.04,3.345 H 0.069 V 0 h 1.575 v 6.161 z"
   style="fill:#3c3c3b;fill-rule:nonzero"
   id="path62" />
                </g>
                <g
   transform="translate(209.647,310.751)"
   id="g68">
                    <path
   d="M 0,3.212 C 0.851,3.212 1.406,2.564 1.406,1.607 1.406,0.649 0.851,0 0,0 c -0.842,0 -1.397,0.649 -1.397,1.607 0,0.957 0.555,1.605 1.397,1.605 m 0,-4.808 c 1.753,0 3,1.331 3,3.203 0,1.87 -1.247,3.201 -3,3.201 -1.743,0 -2.991,-1.331 -2.991,-3.201 0,-1.872 1.248,-3.203 2.991,-3.203"
   style="fill:#3c3c3b;fill-rule:nonzero"
   id="path66" />
                </g>
                <g
   transform="translate(214.557,313.567)"
   id="g72">
                    <path
   d="m 0,-4.885 1.109,-1.991 1.287,0.451 -0.92,1.54 z M -0.188,-0.1 c 0.06,0.309 0.327,0.749 1.05,0.749 0.446,0 0.733,-0.165 0.733,-0.561 0,-0.55 -0.575,-0.539 -1.605,-0.803 -0.752,-0.198 -1.505,-0.551 -1.505,-1.761 0,-1.32 0.862,-1.936 2.248,-1.936 1.297,0 2.129,0.55 2.396,1.541 L 1.763,-2.465 C 1.664,-2.839 1.317,-3.07 0.812,-3.07 c -0.436,0 -0.713,0.176 -0.713,0.517 0,0.407 0.406,0.462 1.317,0.671 0.733,0.154 1.783,0.528 1.783,1.936 0,1.398 -1.02,1.937 -2.327,1.937 -1.02,0 -2.219,-0.319 -2.486,-1.672 z"
   style="fill:#3c3c3b;fill-rule:nonzero"
   id="path70" />
                </g>
                <g
   transform="translate(220.23,313.567)"
   id="g76">
                    <path
   d="m 0,-4.885 1.109,-1.991 1.287,0.451 -0.92,1.54 z M 3.496,0.186 C 3.04,1.254 2.149,1.991 0.842,1.991 c -1.803,0 -3.021,-1.342 -3.021,-3.191 0,-1.836 1.218,-3.212 3.01,-3.212 1.258,0 2.239,0.682 2.665,1.815 l -1.486,0.44 c -0.168,-0.231 -0.515,-0.66 -1.188,-0.66 -0.862,0 -1.407,0.66 -1.407,1.607 0,0.978 0.575,1.605 1.416,1.605 0.595,0 0.961,-0.307 1.159,-0.648 z"
   style="fill:#3c3c3b;fill-rule:nonzero"
   id="path74" />
                </g>
                <g
   transform="translate(0,29.433)"
   id="g80">
                    <rect
   x="226.51601"
   y="279.84299"
   width="1.564"
   height="6.1609998"
   style="fill:#3c3c3b"
   id="rect78" />
                </g>
                <g
   transform="translate(234.922,309.276)"
   id="g84">
                    <path
   d="M 0,6.161 -2.159,2.695 h -0.039 c 0,0.012 0.01,0.66 0.01,1.364 V 6.161 H -3.753 V 0 h 1.624 L 0.04,3.345 H 0.069 V 0 h 1.575 v 6.161 z"
   style="fill:#3c3c3b;fill-rule:nonzero"
   id="path82" />
                </g>
                <g
   transform="translate(0,29.433)"
   id="g88">
                    <rect
   x="237.42599"
   y="279.84299"
   width="1.564"
   height="6.1609998"
   style="fill:#3c3c3b"
   id="rect86" />
                </g>
                <g
   transform="translate(239.851,315.437)"
   id="g92">
                    <path
   d="m 0,-6.161 h 4.367 v 1.617 H 1.564 v 0.748 h 1.922 v 1.364 H 1.564 v 0.815 H 4.417 V 0 H 0 Z"
   style="fill:#3c3c3b;fill-rule:nonzero"
   id="path90" />
                </g>
                <g
   transform="translate(247.326,312.466)"
   id="g96">
                    <path
   d="m 0,-0.219 c 0.465,0 0.693,-0.297 0.693,-0.727 C 0.693,-1.319 0.495,-1.66 0,-1.66 h -0.772 v 1.441 z M -0.06,-3.19 c 1.476,0 2.348,0.903 2.348,2.212 C 2.288,0.364 1.416,1.2 -0.06,1.2 H -0.772 V 2.971 H -2.337 V -3.19 Z"
   style="fill:#3c3c3b;fill-rule:nonzero"
   id="path94" />
                </g>
                <g
   transform="translate(252.939,310.751)"
   id="g100">
                    <path
   d="M 0,3.212 C 0.852,3.212 1.406,2.564 1.406,1.607 1.406,0.649 0.852,0 0,0 c -0.842,0 -1.396,0.649 -1.396,1.607 0,0.957 0.554,1.605 1.396,1.605 m 0,-4.808 c 1.753,0 3,1.331 3,3.203 0,1.87 -1.247,3.201 -3,3.201 -1.743,0 -2.991,-1.331 -2.991,-3.201 0,-1.872 1.248,-3.203 2.991,-3.203"
   style="fill:#3c3c3b;fill-rule:nonzero"
   id="path98" />
                </g>
                <g
   transform="translate(258.77,310.893)"
   id="g104">
                    <path
   d="M 0,2.927 C 0.97,2.927 1.535,2.542 1.535,1.486 1.535,0.441 0.97,0 0.02,0 h -0.704 v 2.927 z m 0.029,-4.544 c 1.763,0 3.1,1.155 3.1,3.103 0,1.969 -1.337,3.058 -3.109,3.058 h -2.268 v -6.161 z"
   style="fill:#3c3c3b;fill-rule:nonzero"
   id="path102" />
                </g>
                <g
   transform="translate(262.482,315.437)"
   id="g108">
                    <path
   d="m 0,-6.161 h 1.564 v 4.544 H 4 V 0 H 0 Z"
   style="fill:#3c3c3b;fill-rule:nonzero"
   id="path106" />
                </g>
                <g
   transform="translate(267.105,315.437)"
   id="g112">
                    <path
   d="m 0,-6.161 h 4.367 v 1.617 H 1.564 v 0.748 h 1.922 v 1.364 H 1.564 v 0.815 H 4.416 V 0 H 0 Z"
   style="fill:#3c3c3b;fill-rule:nonzero"
   id="path110" />
                </g>
                <g
   transform="translate(276.273,309.276)"
   id="g116">
                    <path
   d="M 0,6.161 C 0,5.743 0.01,5.71 0.01,5.644 h -0.02 c -0.287,0.33 -0.871,0.638 -1.614,0.638 -1.595,0 -2.882,-1.32 -2.882,-3.213 0,-1.837 1.218,-3.19 3.021,-3.19 1.217,0 2.228,0.627 2.683,1.815 l -1.436,0.43 C -0.476,1.683 -0.951,1.452 -1.485,1.452 c -0.882,0 -1.427,0.583 -1.427,1.629 0,0.978 0.575,1.617 1.624,1.617 0.476,0 1.07,-0.177 1.278,-0.342 v -0.34 h -1.436 v -1.53 h 2.842 v 3.675 z"
   style="fill:#3c3c3b;fill-rule:nonzero"
   id="path114" />
                </g>
                <g
   transform="translate(282.411,309.276)"
   id="g120">
                    <path
   d="M 0,6.161 H -4.001 V 0 h 1.565 V 2.289 L -0.703,1.431 V 3.058 L -2.436,3.906 V 4.544 H 0 Z"
   style="fill:#3c3c3b;fill-rule:nonzero"
   id="path118" />
                </g>
                <g
   transform="translate(285.519,310.751)"
   id="g124">
                    <path
   d="M 0,3.212 C 0.852,3.212 1.406,2.564 1.406,1.607 1.406,0.649 0.852,0 0,0 c -0.842,0 -1.397,0.649 -1.397,1.607 0,0.957 0.555,1.605 1.397,1.605 m 0,-4.808 c 1.753,0 3,1.331 3,3.203 0,1.87 -1.247,3.201 -3,3.201 -1.743,0 -2.991,-1.331 -2.991,-3.201 0,-1.872 1.248,-3.203 2.991,-3.203"
   style="fill:#3c3c3b;fill-rule:nonzero"
   id="path122" />
                </g>
                <g
   transform="translate(290.43,313.567)"
   id="g128">
                    <path
   d="m 0,-4.885 1.109,-1.991 1.288,0.451 -0.921,1.54 z M -0.188,-0.1 c 0.06,0.309 0.327,0.749 1.05,0.749 0.446,0 0.733,-0.165 0.733,-0.561 0,-0.55 -0.575,-0.539 -1.605,-0.803 -0.752,-0.198 -1.505,-0.551 -1.505,-1.761 0,-1.32 0.862,-1.936 2.248,-1.936 1.297,0 2.129,0.55 2.396,1.541 L 1.763,-2.465 C 1.664,-2.839 1.317,-3.07 0.812,-3.07 c -0.436,0 -0.713,0.176 -0.713,0.517 0,0.407 0.406,0.462 1.318,0.671 0.732,0.154 1.782,0.528 1.782,1.936 0,1.398 -1.02,1.937 -2.327,1.937 -1.02,0 -2.219,-0.319 -2.486,-1.672 z"
   style="fill:#3c3c3b;fill-rule:nonzero"
   id="path126" />
                </g>
                <g
   transform="translate(296.103,313.567)"
   id="g132">
                    <path
   d="m 0,-4.885 1.109,-1.991 1.288,0.451 -0.921,1.54 z M 3.496,0.186 C 3.04,1.254 2.149,1.991 0.842,1.991 c -1.803,0 -3.021,-1.342 -3.021,-3.191 0,-1.836 1.218,-3.212 3.011,-3.212 1.257,0 2.238,0.682 2.664,1.815 l -1.486,0.44 c -0.168,-0.231 -0.515,-0.66 -1.188,-0.66 -0.861,0 -1.406,0.66 -1.406,1.607 0,0.978 0.574,1.605 1.416,1.605 0.594,0 0.961,-0.307 1.158,-0.648 z"
   style="fill:#3c3c3b;fill-rule:nonzero"
   id="path130" />
                </g>
            </g><g
   id="g156"
   transform="translate(-96.1289,-280.76908)">
                <g
   transform="matrix(51.6357,0,0,-51.6357,96.1289,301.475)"
   id="g138">
                    <path
   d="M 0.13,0.318 0.058,0.361 0.079,0.298 0.061,0.291 0.047,0.24 H 0 L 0.042,0.192 0.06,0.134 0,0.1 0.068,0.069 0.095,-0.177 0.464,-0.393 0.835,-0.401 0.907,-0.092 C 0.949,-0.075 1,-0.07 1,-0.07 1,-0.07 0.961,0 0.884,0.024 L 0.878,0.056 0.822,0.328 H 0.405 L 0.397,0.401 Z"
   style="fill:url(#_Linear1);fill-rule:nonzero"
   id="path136" />
                </g>
                <g
   transform="translate(105.733,297.145)"
   id="g142">
                    <path
   d="M 0,-9.308 C 4.851,-1.595 13.609,0 13.609,0 13.609,0 9.614,-3.14 7.623,-4.754 5.537,-6.442 0,-9.308 0,-9.308"
   style="fill:#ffffff"
   id="path140" />
                </g>
                <g
   transform="matrix(-0.914786,0.403938,0.403938,0.914786,130.535,302.936)"
   id="g146">
                    <path
   d="m 0.429,-2.09 c 1.357,-0.424 2.203,-0.03 2.305,0.319 0.148,0.493 -0.883,1.239 -2.305,1.664 -0.888,0.267 -1.71,0.343 -2.199,0.209 z"
   style="fill:#ffffff"
   id="path144" />
                </g>
                <g
   transform="translate(128.041,282.852)"
   id="g150">
                    <path
   d="m 0,29.859 c 0,0 9.825,-8.355 16.92,-8.718 0,0 -2.518,-2.531 -8.165,-3.322 0.554,-2.342 -1.243,-3.266 -3.336,-3.127 -2.588,0.171 -9.005,2.209 -9.005,2.209 -0.706,0.196 -1.521,0.315 -2.225,0.17 C -11,16.014 -15.241,14.749 -18.771,12.069 -22.107,9.535 -22.419,9.088 -28.893,0 c 0,0 -0.894,3.276 2.084,8.636 -3.759,-0.452 -5.103,-2.389 -5.103,-2.389 1.627,5.841 5.922,7.422 5.922,7.422 -3.315,0.382 -5.922,-0.222 -5.922,-0.222 1.861,4.434 8.953,4.723 8.953,4.723 -1.569,1.864 -3.514,2.31 -3.514,2.31 2.264,2 6.84,1.646 6.84,1.646 -0.398,2.425 -2.661,3.431 -2.661,3.431 2.08,0.594 6.162,-0.518 6.162,-0.518 -1.636,2.735 -1.597,2.463 -2.826,4.035 0,0 5.01,-3.909 7.089,-5.437 3.985,-2.928 8.039,-5.008 13.162,-6.494 1.348,-0.39 2.871,-0.603 4.281,-0.429 0.994,0.121 1.288,0.914 0.688,1.761 -0.251,0.358 -0.658,0.699 -0.954,0.949 3.09,-0.56 5.415,-0.111 7.647,1.046 C 7.287,21.883 2.646,24.994 0,29.859"
   style="fill:#ffffff"
   id="path148" />
                </g>
                <g
   transform="translate(123.565,289.919)"
   id="g154">
                    <path
   d="m 0,7.982 c 0,0 5.145,-2.138 10.577,-2.244 L 9.078,0 C 7.859,2.072 6.683,3.274 6.683,3.274 c 0,0 -1.692,-1.278 -2.378,-2.128 -0.131,1.002 -1.36,3.036 -1.36,3.036 0,0 -1.813,-0.496 -4.111,-2.227 z"
   style="fill:#ffca05"
   id="path152" />
                </g>
            </g>
    <defs
   id="defs167">
        <linearGradient
   id="_Linear1"
   x1="0"
   y1="0"
   x2="1"
   y2="0"
   gradientUnits="userSpaceOnUse"
   gradientTransform="matrix(1,0,0,-1,0,-3.83068e-6)"><stop
     offset="0"
     style="stop-color:rgb(23,51,88);stop-opacity:1"
     id="stop162" /><stop
     offset="1"
     style="stop-color:rgb(13,30,55);stop-opacity:1"
     id="stop164" /></linearGradient>
        </defs>
</svg>
