<?xml version="1.0" encoding="UTF-8" standalone="no"?>
<!-- Created with Inkscape (http://www.inkscape.org/) -->

<svg
   version="1.1"
   id="svg2"
   xml:space="preserve"
   width="244.37999"
   height="92.795998"
   viewBox="0 0 244.37999 92.795996"
   sodipodi:docname="program_Lewica_2023.svg"
   inkscape:version="1.1.2 (b8e25be833, 2022-02-05)"
   xmlns:inkscape="http://www.inkscape.org/namespaces/inkscape"
   xmlns:sodipodi="http://sodipodi.sourceforge.net/DTD/sodipodi-0.dtd"
   xmlns="http://www.w3.org/2000/svg"
   xmlns:svg="http://www.w3.org/2000/svg"><defs
     id="defs6"><clipPath
       clipPathUnits="userSpaceOnUse"
       id="clipPath28"><path
         d="m 36,108.425 h 523.275 v 50.234 H 36 Z"
         id="path26" /></clipPath><clipPath
       clipPathUnits="userSpaceOnUse"
       id="clipPath40"><path
         d="M 0,0 H 595.276 V 841.89 H 0 Z"
         id="path38" /></clipPath></defs><sodipodi:namedview
     id="namedview4"
     pagecolor="#505050"
     bordercolor="#eeeeee"
     borderopacity="1"
     inkscape:pageshadow="0"
     inkscape:pageopacity="0"
     inkscape:pagecheckerboard="0"
     showgrid="false"
     fit-margin-top="0"
     fit-margin-left="0"
     fit-margin-right="0"
     fit-margin-bottom="0"
     inkscape:zoom="2.6547411"
     inkscape:cx="56.126001"
     inkscape:cy="38.798511"
     inkscape:window-width="1920"
     inkscape:window-height="1017"
     inkscape:window-x="-8"
     inkscape:window-y="-8"
     inkscape:window-maximized="1"
     inkscape:current-layer="g8" /><g
     id="g8"
     inkscape:groupmode="layer"
     inkscape:label="program_Lewica_2023"
     transform="matrix(1.3333333,0,0,-1.3333333,-274.66026,708.85892)"><g
       id="g34"
       style="fill:#eb2a48;fill-opacity:1"><g
         id="g36"
         clip-path="url(#clipPath40)"
         style="fill:#eb2a48;fill-opacity:1"><g
           id="g42"
           transform="translate(205.9952,509.1542)"
           style="fill:#eb2a48;fill-opacity:1"><path
             d="m 0,0 v -47.107 c 61.095,7.479 122.19,14.957 183.285,22.436 V 22.49 Z M 30.368,-34.993 11.894,-37.26 v 31.072 l 7.21,0.885 v -24.236 l 11.264,1.382 z m 22.981,2.82 -19.826,-2.433 v 31.072 l 19.6,2.405 v -6.836 l -12.391,-1.52 v -5.149 l 11.265,1.382 v -6.747 l -11.265,-1.382 v -5.504 l 12.617,1.548 z m 37.174,4.561 -8.201,-1.006 -5.136,17.702 -5.137,-18.962 -8.2,-1.007 -8.697,30.005 7.57,0.929 5.452,-21.081 6.083,22.496 5.858,0.719 6.083,-21.004 5.451,22.42 7.57,0.928 z m 11.852,1.455 V 4.915 l 7.209,0.884 v -31.072 z m 27.667,2.773 c -9.508,-1.166 -16.402,5.001 -16.402,14.145 0,9.144 6.894,17.003 16.401,18.17 5.723,0.702 10.769,-1.475 13.518,-5.532 l -6.218,-4.314 c -1.397,2.226 -4.1,3.314 -7.3,2.922 -5.587,-0.686 -9.191,-4.812 -9.191,-10.361 0,-5.549 3.604,-8.791 9.192,-8.105 3.199,0.392 5.947,2.15 7.299,4.713 l 6.218,-2.788 c -2.704,-4.727 -7.75,-8.142 -13.517,-8.85 m 36.949,5.155 -1.577,4.69 -11.715,-1.438 -1.578,-5.076 -7.885,-0.968 10.724,32.388 9.192,1.128 10.724,-29.756 z"
             style="fill:#eb2a48;fill-opacity:1;fill-rule:nonzero;stroke:none"
             id="path44" /></g></g></g><g
       id="g46"
       transform="translate(361.8564,501.101)"
       style="fill:#eb2a48;fill-opacity:1"><path
         d="M 0,0 7.39,0.907 3.695,11.861 Z"
         style="fill:#eb2a48;fill-opacity:1;fill-rule:nonzero;stroke:none"
         id="path48" /></g></g></svg>
