<?xml version="1.0" encoding="UTF-8" standalone="no"?>
<!-- Created with Inkscape (http://www.inkscape.org/) -->

<svg
   version="1.1"
   id="svg2"
   xml:space="preserve"
   width="371.80612"
   height="114.2379"
   viewBox="0 0 371.80612 114.2379"
   sodipodi:docname="program-1.svg"
   inkscape:version="1.1.2 (b8e25be833, 2022-02-05)"
   xmlns:inkscape="http://www.inkscape.org/namespaces/inkscape"
   xmlns:sodipodi="http://sodipodi.sourceforge.net/DTD/sodipodi-0.dtd"
   xmlns="http://www.w3.org/2000/svg"
   xmlns:svg="http://www.w3.org/2000/svg"><defs
     id="defs6"><clipPath
       clipPathUnits="userSpaceOnUse"
       id="clipPath18"><path
         d="M 0,0 H 595.2756 V 841.8898 H 0 Z"
         id="path16" /></clipPath></defs><sodipodi:namedview
     id="namedview4"
     pagecolor="#505050"
     bordercolor="#eeeeee"
     borderopacity="1"
     inkscape:pageshadow="0"
     inkscape:pageopacity="0"
     inkscape:pagecheckerboard="0"
     showgrid="false"
     fit-margin-top="0"
     fit-margin-left="0"
     fit-margin-right="0"
     fit-margin-bottom="0"
     inkscape:zoom="0.64052331"
     inkscape:cx="181.10192"
     inkscape:cy="393.42831"
     inkscape:window-width="1920"
     inkscape:window-height="1017"
     inkscape:window-x="-8"
     inkscape:window-y="-8"
     inkscape:window-maximized="1"
     inkscape:current-layer="g8" /><g
     id="g8"
     inkscape:groupmode="layer"
     inkscape:label="program-1"
     transform="matrix(1.3333333,0,0,-1.3333333,-1312.8714,-150.52372)"><g
       id="g10" /><path
       d="m 1121.0361,-115.68989 c 5.0777,0 9.4728,-0.6222 13.1865,-1.8703 3.7119,-1.2478 6.7776,-2.9908 9.1922,-5.2277 2.4179,-2.2379 4.2213,-4.9135 5.394,-8.0314 1.1738,-3.1184 1.7521,-6.5281 1.7521,-10.2316 0,-3.8517 -0.6131,-7.3724 -1.8394,-10.5832 -1.2263,-3.2074 -3.0637,-5.9774 -5.5154,-8.2882 -2.4525,-2.3111 -5.5162,-4.1082 -9.2114,-5.3912 -3.6944,-1.2838 -8.0204,-1.9256 -12.9586,-1.9256 h -10.5582 v -28.004 h -14.1324 v 79.5532 z m 0,-39.996 c 2.5911,0 4.8509,0.3484 6.7788,1.0261 1.9244,0.6792 3.5359,1.6507 4.8138,2.9172 1.2787,1.2651 2.2246,2.8046 2.8542,4.6216 0.6315,1.8139 0.9467,3.8321 0.9467,6.0701 0,2.1257 -0.3152,4.0504 -0.9467,5.775 -0.6296,1.7235 -1.5755,3.1921 -2.8358,4.4008 -1.2612,1.2098 -2.8545,2.1467 -4.7809,2.7876 -1.9259,0.6409 -4.203,0.9541 -6.8301,0.9541 h -10.5582 v -28.5525 z"
       style="fill:#2ed397;fill-opacity:1;fill-rule:evenodd;stroke:none"
       id="path30" /><path
       d="m 1201.8343,-130.16019 c -0.4204,-0.7682 -0.8587,-1.3187 -1.3323,-1.6679 -0.4714,-0.3473 -1.067,-0.5329 -1.7674,-0.5329 -0.7356,0 -1.5222,0.2936 -2.3817,0.8626 -0.8569,0.57 -1.891,1.1933 -3.0824,1.889 -1.1894,0.6962 -2.5727,1.3391 -4.1678,1.908 -1.5919,0.568 -3.4837,0.8433 -5.6559,0.8433 -1.961,0 -3.676,-0.2373 -5.1489,-0.7333 -1.4698,-0.4961 -2.6949,-1.1923 -3.6932,-2.0739 -0.9993,-0.8798 -1.7521,-1.9255 -2.2434,-3.1527 -0.4895,-1.2285 -0.7342,-2.5863 -0.7342,-4.0529 0,-1.8703 0.5074,-3.4283 1.5058,-4.6764 0.9981,-1.2478 2.3108,-2.3108 3.9583,-3.1912 1.6452,-0.8799 3.5186,-1.6665 5.6211,-2.3664 2.1013,-0.697 4.2551,-1.4306 6.461,-2.2181 2.2065,-0.79 4.3603,-1.7039 6.4627,-2.7516 2.0999,-1.0445 3.9748,-2.3632 5.62,-3.9594 1.6464,-1.5959 2.9784,-3.5589 3.9756,-5.8686 0.9983,-2.3111 1.4885,-5.1176 1.4885,-8.4169 0,-3.5954 -0.5783,-6.95 -1.7513,-10.0868 -1.173,-3.1354 -2.8899,-5.8683 -5.1497,-8.1978 -2.2575,-2.3295 -5.0244,-4.1618 -8.2814,-5.502 -3.2579,-1.3385 -6.988,-2.016 -11.1906,-2.016 -2.4157,0 -4.7974,0.2565 -7.1445,0.7517 -2.3456,0.495 -4.5878,1.1923 -6.7416,2.1084 -2.1538,0.9185 -4.1851,2.0163 -6.0761,3.3021 -1.891,1.2816 -3.573,2.7136 -5.0428,4.2911 l 4.1482,7.0963 c 0.3524,0.5142 0.8065,0.9538 1.366,1.303 0.561,0.347 1.1566,0.5117 1.7881,0.5117 0.8754,0 1.8202,-0.3668 2.8358,-1.1177 1.0157,-0.7529 2.2235,-1.597 3.6255,-2.5132 1.3998,-0.9159 3.0473,-1.7416 4.9198,-2.4948 1.8732,-0.7517 4.1154,-1.1367 6.7417,-1.1367 4.0289,0 7.145,1.0083 9.3512,3.0082 2.2073,1.9975 3.3103,4.86 3.3103,8.6003 8e-4,2.0922 -0.491,3.7961 -1.4882,5.1182 -0.9984,1.3187 -2.3292,2.4372 -3.9747,3.337 -1.6464,0.8985 -3.521,1.6506 -5.6211,2.2728 -2.1036,0.6244 -4.239,1.3033 -6.4092,2.0367 -2.171,0.7333 -4.3084,1.6146 -6.4097,2.6393 -2.1016,1.0273 -3.9747,2.3664 -5.6219,4.0181 -1.6458,1.6495 -2.9591,3.7213 -3.9575,6.1971 -0.9972,2.4764 -1.5057,5.5208 -1.5057,9.1511 0,2.8964 0.5598,5.7209 1.665,8.4736 1.103,2.7493 2.6949,5.1874 4.7974,7.3165 2.1002,2.1263 4.6913,3.8319 7.7737,5.1168 3.0835,1.2819 6.6203,1.9248 10.6126,1.9248 4.4822,0 8.6159,-0.7334 12.3979,-2.202 3.7834,-1.4666 7.0056,-3.5209 9.6665,-6.1614 z"
       style="fill:#2ed397;fill-opacity:1;fill-rule:evenodd;stroke:none"
       id="path32" /><path
       d="m 1263.5082,-183.02829 v -12.2148 h -44.4963 v 79.5532 h 14.1322 v -67.3384 z"
       style="fill:#2ed397;fill-opacity:1;fill-rule:evenodd;stroke:none"
       id="path34" /><path
       d="m 1032.416,-116.46009 c -2.2504,-2.2544 -3.672,-5.123 -4.4668,-8.079 0.4838,-2.4987 0.5949,-4.8702 1.0715,-8.7659 0.5153,-4.2284 0.7506,-9.4172 0.5811,-14.0051 -0.1355,-3.7156 -0.3728,-7.2459 -0.6965,-8.8418 5.6336,-0.4057 25.3224,-2.3757 35.5303,3.2485 4.4852,2.2504 6.0752,6.4142 5.5494,11.3173 -0.7098,4.4232 -2.7148,8.4436 -6.632,10.0826 -3.1354,1.3096 -7.7862,1.7152 -11.8666,-0.3997 5.572,17.1263 -11.1992,23.3186 -19.0704,15.4431 z m -43.865,-35.1623 c -8.0368,6.6645 -3.8668,25.8684 14.5854,19.6752 -1.6535,5.277 -1.1308,9.0854 0.3217,12.3186 1.8156,4.0405 5.3867,6.1081 10.029,6.7322 4.6094,0.101 8.7712,-1.9247 10.9145,-5.86 5.0482,-10.8338 3.5691,-30.8339 3.1482,-37.0403 -1.6617,0.379 -4.9947,0.5669 -8.8759,0.8081 -4.7905,0.296 -10.3632,0.6874 -14.6602,0.1593 -6.4038,-0.7815 -9.7421,-1.5375 -15.4627,3.2069 z m 34.3154,-43.3361 c 3.8494,4.79 4.066,7.9526 3.4715,14.9068 -0.3628,4.2426 -0.409,9.4397 -0.072,14.0151 0.271,3.7108 0.4868,6.8981 0.8689,8.4827 -5.8224,0.4271 -25.0665,3.7312 -35.4779,-1.6146 -4.5632,-2.0869 -6.3204,-6.6603 -5.9652,-11.3777 0.5485,-4.4453 2.4145,-8.2681 6.2702,-10.048 3.0864,-1.4244 6.7314,-1.4253 11.8114,0.1009 -6.2969,-16.1898 12.3956,-22.801 19.0931,-14.4652 z m 44.509,33.2226 c 7.2632,-7.9302 -0.4399,-23.7254 -15.2235,-18.8501 1.6906,-3.8676 1.1526,-7.89 0.05,-10.8921 -1.2889,-3.5113 -6.7252,-6.3071 -10.9179,-6.8607 -4.6404,-0.3654 -9.0403,2.6172 -11.041,6.9381 -4.0062,9.6791 -2.0724,28.5412 -1.5097,33.5715 1.4987,-0.3523 4.8795,-0.6366 8.3894,-0.7118 4.3206,-0.0895 9.2256,0.1837 13.2296,0.559 3.689,0.3427 5.4771,0.7076 7.8477,1.0979 5.2166,-0.7067 7.1359,-2.6274 9.1749,-4.8518"
       style="fill:#2ed397;fill-opacity:1;fill-rule:evenodd;stroke:none"
       id="path36" /></g></svg>
